<svg id="Layer_1"
    data-name="Layer 1"
    xmlns="http://www.w3.org/2000/svg"
    viewBox="0 0 384.7 384.64">
    <title>wallstreet</title>
    <path
        d="M22.13,192.37c0-28-.24-56,.06-84C22.55,75.24,37,49.87,65.59,32.92c13-7.68,27.25-11,42.26-11q84.93-.07,169.85,0c43.95.1,79.23,31.17,85.17,74.73a92.36,92.36,0,0,1,.69,12.34q.06,83.61,0,167.23c-.06,41.35-26.33,75.39-65.49,84.6a91,91,0,0,1-20.4,2.38q-84.75.29-169.48.08c-41.92-.09-76-28-84.35-69a97.37,97.37,0,0,1-1.65-18.61C22,247.86,22.13,220.11,22.13,192.37Zm170.6,114.68c-1.14-1.4-2.1-2.52-3-3.69a102.48,102.48,0,0,1-14.66-26.42c-1.44-3.75-4.16-5.13-7.26-4s-4,4.13-2.66,7.83a108.52,108.52,0,0,0,22.85,37c3.51,3.74,6.15,3.75,9.77,0,10.09-10.52,18-22.56,22-36.55,2.53-8.66,5.11-17.84,4.79-26.69-.7-19.6-8.3-37.07-20.75-52.33a21.5,21.5,0,0,1-1.52-2.47c47.07-9.5,78.3,13.55,89.66,50.18-11.41,2.3-22.81,2-34.23.27-4.31-.65-6.87.82-7.46,4.14s1.63,5.68,5.77,6.39a107.87,107.87,0,0,0,43.13-1.31c5-1.16,6.47-3.45,5.06-8.35a92.33,92.33,0,0,0-12.62-27c-8.53-12.37-18.4-23.49-32.49-29.68a88.91,88.91,0,0,0-45.72-7.2l-9.75,1c6.33-19.43,16.91-35.53,34-45.6,16.63-9.79,35.34-11.15,54.74-7.37a31,31,0,0,1-1.8,4.86c-5,8.44-10,16.91-15.31,25.18-2.38,3.72-2.75,6.42-.14,8.61s5.57,1.68,8.37-1.68a108.34,108.34,0,0,0,20.58-37.92c1.52-5,.22-7.32-4.75-8.53a100.36,100.36,0,0,0-34.2-2.29c-22,2.24-40.46,11-54.33,28.7a103.88,103.88,0,0,0-16.23,29.14c-13.92-15.51-22.82-32.92-22.75-53.24.06-19,8.23-35.58,21-50.12a102.08,102.08,0,0,1,17.84,30.34c1.44,3.71,4.23,5.08,7.31,3.86,2.82-1.12,3.92-4.08,2.66-7.54a108.33,108.33,0,0,0-23-37.38c-3.39-3.62-6.06-3.64-9.5-.09C177.93,77.72,170,89.86,165.9,104c-2.5,8.55-5.07,17.59-4.79,26.32.63,19.47,8.13,36.86,20.36,52.11.72.89,1.32,1.87,2.1,3-49.21,9.62-79.26-15.5-89.76-50.26,11.55-2.25,23.09-2,34.64-.16,3.9.61,6.52-1.08,7-4.32s-1.66-5.59-5.53-6.22a109.07,109.07,0,0,0-43.52,1.29c-5,1.18-6.65,3.59-4.82,8.42,2.83,7.44,5.51,15.08,9.48,21.91,17.59,30.24,43.67,45,79.06,41.91l11.93-1c-6.45,19.55-17.07,35.78-34.42,45.8-16.56,9.57-35.14,11-54.36,7.12C94,248,94.48,246.44,95.1,245a100.7,100.7,0,0,1,15.51-25.5c2.62-3.17,2.46-6.15-.12-8.26s-5.51-1.61-8.13,1.51a108.42,108.42,0,0,0-20.93,38.57c-1.39,4.56.18,7.17,5,8,5.51,1,11.06,2,16.63,2.51,28.44,2.44,52.77-5.56,71.28-28.32a101.54,101.54,0,0,0,16.55-29.16C218.63,233.16,223.1,272.65,192.73,307.05Z"
        transform="translate(-0.16 -0.68)"
        style="fill:#01cba4" />
    <path
        d="M192.73,307.05c30.37-34.4,25.9-73.89-1.83-102.68a101.54,101.54,0,0,1-16.55,29.16c-18.51,22.76-42.84,30.76-71.28,28.32-5.57-.48-11.12-1.5-16.63-2.51-4.83-.88-6.4-3.49-5-8a108.42,108.42,0,0,1,20.93-38.57c2.62-3.12,5.53-3.61,8.13-1.51s2.74,5.09.12,8.26A100.7,100.7,0,0,0,95.1,245c-.62,1.47-1.1,3-1.81,4.91,19.22,3.84,37.8,2.45,54.36-7.12,17.35-10,28-26.25,34.42-45.8l-11.93,1c-35.39,3.07-61.47-11.67-79.06-41.91-4-6.83-6.65-14.47-9.48-21.91-1.83-4.83-.15-7.24,4.82-8.42a109.07,109.07,0,0,1,43.52-1.29c3.87.63,6,3.11,5.53,6.22s-3.12,4.93-7,4.32c-11.55-1.79-23.09-2.09-34.64.16,10.5,34.76,40.55,59.88,89.76,50.26-.78-1.14-1.38-2.12-2.1-3-12.23-15.25-19.73-32.64-20.36-52.11-.28-8.73,2.29-17.77,4.79-26.32,4.13-14.11,12-26.25,22.26-36.83,3.44-3.55,6.11-3.53,9.5.09a108.33,108.33,0,0,1,23,37.38c1.26,3.46.16,6.42-2.66,7.54-3.08,1.22-5.87-.15-7.31-3.86A102.08,102.08,0,0,0,192.85,78c-12.76,14.54-20.93,31.1-21,50.12-.07,20.32,8.83,37.73,22.75,53.24a103.88,103.88,0,0,1,16.23-29.14c13.87-17.69,32.29-26.46,54.33-28.7a100.36,100.36,0,0,1,34.2,2.29c5,1.21,6.27,3.57,4.75,8.53a108.34,108.34,0,0,1-20.58,37.92c-2.8,3.36-5.71,3.92-8.37,1.68s-2.24-4.89.14-8.61c5.29-8.27,10.28-16.74,15.31-25.18a31,31,0,0,0,1.8-4.86c-19.4-3.78-38.11-2.42-54.74,7.37-17.12,10.07-27.7,26.17-34,45.6l9.75-1a88.91,88.91,0,0,1,45.72,7.2c14.09,6.19,24,17.31,32.49,29.68a92.33,92.33,0,0,1,12.62,27c1.41,4.9,0,7.19-5.06,8.35A107.87,107.87,0,0,1,256,260.75c-4.14-.71-6.34-3.16-5.77-6.39s3.15-4.79,7.46-4.14c11.42,1.71,22.82,2,34.23-.27-11.36-36.63-42.59-59.68-89.66-50.18a21.5,21.5,0,0,0,1.52,2.47c12.45,15.26,20.05,32.73,20.75,52.33.32,8.85-2.26,18-4.79,26.69-4.07,14-11.93,26-22,36.55-3.62,3.78-6.26,3.77-9.77,0a108.52,108.52,0,0,1-22.85-37c-1.37-3.7-.3-6.72,2.66-7.83s5.82.22,7.26,4a102.48,102.48,0,0,0,14.66,26.42C190.63,304.53,191.59,305.65,192.73,307.05Z"
        transform="translate(-0.16 -0.68)"
        style="fill:#fafdfc" />
</svg>